<?xml version="1.0" encoding="UTF-8" standalone="no"?>
<svg
   xmlns:dc="http://purl.org/dc/elements/1.1/"
   xmlns:cc="http://creativecommons.org/ns#"
   xmlns:rdf="http://www.w3.org/1999/02/22-rdf-syntax-ns#"
   xmlns:svg="http://www.w3.org/2000/svg"
   xmlns="http://www.w3.org/2000/svg"
   xmlns:sodipodi="http://sodipodi.sourceforge.net/DTD/sodipodi-0.dtd"
   xmlns:inkscape="http://www.inkscape.org/namespaces/inkscape"
   id="Filled-Outline"
   height="54.249348"
   viewBox="0 0 232.31761 54.249348"
   width="232.31761"
   version="1.1"
   sodipodi:docname="logo.svg"
   inkscape:version="1.0.2 (1.0.2+r75+1)">
  <metadata
     id="metadata42">
    <rdf:RDF>
      <cc:Work
         rdf:about="">
        <dc:format>image/svg+xml</dc:format>
        <dc:type
           rdf:resource="http://purl.org/dc/dcmitype/StillImage" />
        <dc:title />
      </cc:Work>
    </rdf:RDF>
  </metadata>
  <defs
     id="defs40" />
  <sodipodi:namedview
     pagecolor="#ffffff"
     bordercolor="#666666"
     borderopacity="1"
     objecttolerance="10"
     gridtolerance="10"
     guidetolerance="10"
     inkscape:pageopacity="0"
     inkscape:pageshadow="2"
     inkscape:window-width="1920"
     inkscape:window-height="1018"
     id="namedview38"
     showgrid="false"
     inkscape:zoom="3.5039062"
     inkscape:cx="156.75509"
     inkscape:cy="61.903636"
     inkscape:window-x="0"
     inkscape:window-y="34"
     inkscape:window-maximized="1"
     inkscape:current-layer="Filled-Outline"
     inkscape:document-rotation="0" />
  <path
     d="m 25.572138,26.45524 q 0,1.461822 -1.461822,1.461822 H 9.648024 L 6.899799,38.149816 h 13.682653 q 1.461822,0 1.461822,1.461822 0,1.461822 -1.461822,1.461822 H 6.120161 L 3.371935,51.306213 h 13.682654 q 1.461822,0 1.461822,1.461822 0,1.461822 -1.461822,1.461822 H 1.461822 Q 0,54.229857 0,52.86549 0,52.651089 7.1142,26.084912 7.21165,25.695093 7.659946,25.344256 8.108238,24.993418 8.517549,24.993418 h 15.592767 q 1.461822,0 1.461822,1.461822 z"
     style="font-style:italic;font-variant:normal;font-weight:normal;font-stretch:normal;font-size:46.7783px;line-height:1.25;font-family:Monofur;-inkscape-font-specification:Monofur;letter-spacing:0px;word-spacing:0px;stroke-width:1"
     id="path933" />
  <path
     d="m 49.000266,26.45524 q 0,0.526256 -0.4288,0.994039 l -11.65559,12.474214 4.89223,12.298795 q 0.116946,0.292364 0.116946,0.60422 0,0.604219 -0.467783,1.01353 -0.448292,0.40931 -1.052512,0.40931 -0.935566,0 -1.305894,-0.935566 L 34.693906,42.30139 23.973879,53.762074 q -0.448292,0.487274 -1.052512,0.487274 -0.584729,0 -1.033021,-0.448292 -0.467783,-0.448292 -0.467783,-1.033021 0,-0.526256 0.428801,-0.994039 L 33.504958,39.299782 28.593236,27.000987 q -0.116946,-0.292364 -0.116946,-0.604219 0,-0.60422 0.467783,-1.01353 0.467783,-0.40931 1.072003,-0.40931 0.935566,0 1.305894,0.935566 l 4.385466,11.012391 10.72003,-11.460683 q 0.44829,-0.487274 1.05251,-0.487274 0.60422,0 1.05251,0.448292 0.46778,0.428801 0.46778,1.03302 z"
     style="font-style:italic;font-variant:normal;font-weight:normal;font-stretch:normal;font-size:46.7783px;line-height:1.25;font-family:Monofur;-inkscape-font-specification:Monofur;letter-spacing:0px;word-spacing:0px;stroke-width:1"
     id="path935" />
  <path
     d="m 70.420836,26.396768 q 0,0.2144 -7.1142,26.741595 -0.29237,1.091494 -1.38386,1.091494 -1.5008,0 -1.5008,-1.403349 0,-0.214401 0.0585,-0.428801 l 3.04059,-11.324247 h -10.62257 l -3.2355,12.064903 q -0.29237,1.091494 -1.38386,1.091494 -1.50081,0 -1.50081,-1.403349 0,-0.214401 7.1142,-26.741596 0.29237,-1.091494 1.36437,-1.091494 1.5203,0 1.5203,1.40335 0,0.2144 -0.0585,0.428801 l -3.04059,11.324247 h 10.62258 l 3.2355,-12.064904 q 0.29236,-1.091494 1.36436,-1.091494 1.5203,0 1.5203,1.40335 z"
     style="font-style:italic;font-variant:normal;font-weight:normal;font-stretch:normal;font-size:46.7783px;line-height:1.25;font-family:Monofur;-inkscape-font-specification:Monofur;letter-spacing:0px;word-spacing:0px;stroke-width:1"
     id="path937" />
  <path
     d="m 88.683856,52.787526 q 0.0975,1.442331 -1.46182,1.442331 -1.34487,0 -1.44233,-1.364367 l -0.48727,-7.406565 h -9.51159 l -4.83376,8.069257 q -0.4288,0.721166 -1.20844,0.721166 -0.60422,0 -1.072,-0.40931 -0.46778,-0.428801 -0.46778,-1.033021 0,-0.40931 0.23389,-0.79913 l 15.70971,-26.098393 q 0.56524,-0.935566 1.32539,-0.935566 1.42284,0 1.52029,1.617749 z m -3.58633,-10.252245 -0.74066,-11.324247 -6.80234,11.324247 z"
     style="font-style:italic;font-variant:normal;font-weight:normal;font-stretch:normal;font-size:46.7783px;line-height:1.25;font-family:Monofur;-inkscape-font-specification:Monofur;letter-spacing:0px;word-spacing:0px;stroke-width:1"
     id="path939" />
  <path
     d="m 116.30072,26.396768 q 0,0.2144 -0.0585,0.428801 l -4.97016,18.516411 q -0.99404,3.722773 -4.22954,6.276088 -3.25499,2.611789 -7.075224,2.611789 -3.21601,0 -5.34052,-2.007569 -2.10503,-2.02706 -2.10503,-5.243068 0,-1.149966 0.33135,-2.377897 l 4.9702,-18.516411 q 0.29236,-1.091494 1.36436,-1.091494 1.520304,0 1.520304,1.40335 0,0.2144 -0.0585,0.428801 L 95.679266,45.34198 q -0.23389,0.877093 -0.23389,1.656731 0,1.968587 1.26691,3.138044 1.26691,1.169458 3.25499,1.169458 2.806704,0 5.301544,-2.007569 2.43637,-1.968587 3.17703,-4.716812 l 4.97019,-18.49692 q 0.29237,-1.091494 1.36437,-1.091494 1.52029,0 1.52029,1.40335 z"
     style="font-style:italic;font-variant:normal;font-weight:normal;font-stretch:normal;font-size:46.7783px;line-height:1.25;font-family:Monofur;-inkscape-font-specification:Monofur;letter-spacing:0px;word-spacing:0px;stroke-width:1"
     id="path941" />
  <path
     d="m 137.04581,29.398375 q 0,0.60422 -0.46778,1.033021 -0.46779,0.40931 -1.07201,0.40931 -0.70167,0 -1.26691,-0.838111 -1.38386,-2.085533 -4.40496,-2.085533 -4.75579,0 -6.97776,3.391427 -0.76015,1.169458 -0.76015,2.280442 0,3.099063 4.59987,3.099063 3.54735,0 6.15914,1.793168 2.96263,2.02706 2.96263,5.418487 0,4.463429 -4.40496,7.543001 -3.97615,2.787207 -8.63449,2.787207 -2.70925,0 -4.93122,-1.052512 -2.51433,-1.208439 -3.54735,-3.4499 -0.15593,-0.331346 -0.15593,-0.662692 0,-1.442331 1.5203,-1.442331 0.70167,0 1.11098,0.584728 0,0 0.70168,1.091494 1.7152,2.007569 5.30154,2.007569 2.72873,0 5.12612,-1.110985 2.5923,-1.188948 3.95666,-3.352445 0.95506,-1.520294 0.95506,-3.001607 0,-2.260952 -2.04655,-3.352445 -1.61775,-0.877093 -4.07361,-0.877093 -2.92364,0 -5.12612,-1.520295 -2.45586,-1.695714 -2.45586,-4.521903 0,-3.683791 3.60582,-6.256597 3.25499,-2.319425 7.1142,-2.319425 5.26256,0 7.03624,3.722774 0.17542,0.370328 0.17542,0.682183 z"
     style="font-style:italic;font-variant:normal;font-weight:normal;font-stretch:normal;font-size:46.7783px;line-height:1.25;font-family:Monofur;-inkscape-font-specification:Monofur;letter-spacing:0px;word-spacing:0px;stroke-width:1"
     id="path943" />
  <path
     d="m 164.07977,26.45524 q 0,1.461822 -1.46182,1.461822 h -7.64046 l -6.76336,25.221301 q -0.29236,1.091494 -1.38386,1.091494 -1.5008,0 -1.5008,-1.403349 0,-0.214401 0.0585,-0.428801 l 6.54896,-24.480645 h -6.86081 q -1.46183,0 -1.46183,-1.461822 0,-1.461822 1.46183,-1.461822 h 17.54186 q 1.46182,0 1.46182,1.461822 z"
     style="font-style:italic;font-variant:normal;font-weight:normal;font-stretch:normal;font-size:46.7783px;line-height:1.25;font-family:Monofur;-inkscape-font-specification:Monofur;letter-spacing:0px;word-spacing:0px;stroke-width:1"
     id="path945" />
  <path
     style="font-style:italic;font-variant:normal;font-weight:normal;font-stretch:normal;font-size:46.7783px;line-height:1.25;font-family:Monofur;-inkscape-font-specification:Monofur;letter-spacing:0px;word-spacing:0px;stroke-width:1"
     d="m 177.48954,52.768035 q 0,1.461822 -1.46182,1.461822 -2.5728,0 -4.26852,-1.61775 -1.67622,-1.63724 -1.67622,-4.190556 0,-0.935566 0.25338,-1.871132 l 2.65077,-9.862425 h -3.93717 q -1.46182,0 -1.46182,-1.461822 0,-1.461822 1.46182,-1.461822 h 5.86678 q 1.44233,0 1.44233,1.42284 0,0.214401 -0.0975,0.584729 l -3.09906,11.519156 q -0.15593,0.584729 -0.15593,1.149967 0,1.325385 0.83812,2.105024 0.83811,0.760147 2.18298,0.760147 1.46182,0 1.46182,1.461822 z"
     id="path966" />
  <path
     d="m 207.93442,34.251624 q 0,6.587944 -3.82023,12.844542 -4.36598,7.133691 -10.54461,7.133691 -3.78125,0 -5.67187,-2.865171 -1.61775,-2.43637 -1.61775,-6.393035 0,-6.587944 3.82023,-12.844542 4.36597,-7.133691 10.52512,-7.133691 3.78124,0 5.69136,2.865171 1.61775,2.416879 1.61775,6.393035 z m -2.8067,0.389819 q 0,-2.494843 -0.99404,-4.385466 -1.22793,-2.338915 -3.50837,-2.338915 -2.5923,0 -5.37951,2.63128 -3.97615,3.742264 -5.49645,9.433624 -0.66269,2.455861 -0.66269,4.599866 0,2.514334 0.97455,4.385466 1.20844,2.338915 3.50837,2.338915 2.61179,0 5.399,-2.631279 3.95666,-3.742265 5.51594,-9.453116 0.6432,-2.436369 0.6432,-4.580375 z"
     style="font-style:italic;font-variant:normal;font-weight:normal;font-stretch:normal;font-size:46.7783px;line-height:1.25;font-family:Monofur;-inkscape-font-specification:Monofur;letter-spacing:0px;word-spacing:0px;stroke-width:1"
     id="path949" />
  <path
     d="m 232.31762,26.396768 q 0,0.2144 -0.0585,0.428801 l -6.99725,26.117884 q -0.35084,1.286404 -1.48131,1.286404 -1.13048,0 -1.46183,-1.305894 l -5.1651,-20.640926 -5.59391,20.855326 q -0.29236,1.091494 -1.38385,1.091494 -1.50081,0 -1.50081,-1.403349 0,-0.214401 0.0585,-0.428801 l 6.99725,-26.117885 q 0.35084,-1.286404 1.48131,-1.286404 1.13048,0 1.46182,1.305895 l 5.16511,20.640925 5.5939,-20.855326 q 0.29237,-1.091494 1.36437,-1.091494 1.5203,0 1.5203,1.40335 z"
     style="font-style:italic;font-variant:normal;font-weight:normal;font-stretch:normal;font-size:46.7783px;line-height:1.25;font-family:Monofur;-inkscape-font-specification:Monofur;letter-spacing:0px;word-spacing:0px;stroke-width:1"
     id="path951" />
  <g
     id="g952"
     transform="matrix(0.12980917,0,0,0.12980917,160.63209,-1.0955894)"
     style="stroke-width:15.4072">
    <g
       id="g920"
       style="stroke-width:15.4072">
      <path
         d="m 128.27,247.56 c 38.843,0 73.751,-24.809 85.389,-61.867 2.462,-7.839 3.961,-16.16 3.961,-24.8 0,-48.333 -39.571,-87.333 -39.571,-87.333 0,0 2.726,15.788 1.03,29.227 -1.696,13.439 -7.946,21.689 -7.946,21.689 0,0 4.564,-21.102 -1.5,-35.25 -6.98,-16.284 -19.999,-23.838 -25,-38.5 -5.756,-16.875 2.869,-36.5 2.869,-36.5 0,0 -28.369,10.962 -48.869,39.25 -23.25,32.083 -7.583,73.417 -7.583,73.417 0,0 -2.167,-11.417 -13.917,-20.667 -11.75,-9.25 -6.99,-23.596 -6.99,-23.596 0,0 -31.762,35.597 -31.762,78.264 0,11.583 3.317,23.265 8.149,34.138 14.288,32.147 46.56,52.528 81.74,52.528 z"
         fill="#d10028"
         id="path918"
         style="stroke-width:15.4105" />
    </g>
    <g
       id="g926"
       style="stroke-width:15.4072">
      <g
         id="g924"
         style="stroke-width:15.4072">
        <path
           d="m 178.048,73.56 c 0,0 1.48,8.581 1.579,18.474 9.26,15.51 17.993,36.155 17.993,58.859 0,8.64 -1.499,16.961 -3.961,24.8 -11.638,37.058 -46.546,61.867 -85.389,61.867 -10.441,0 -20.62,-1.808 -30.155,-5.174 14.553,9.711 31.961,15.174 50.155,15.174 38.843,0 73.751,-24.809 85.389,-61.867 2.462,-7.839 3.961,-16.16 3.961,-24.8 C 217.619,112.56 178.048,73.56 178.048,73.56 Z"
           fill="#b7022d"
           id="path922"
           style="stroke-width:15.4105" />
      </g>
    </g>
    <g
       id="g930"
       style="stroke-width:15.4072">
      <path
         d="m 173.098,182.033 c 0,-24.406 -16.011,-40.148 -25.981,-50.247 -17.753,-17.987 -14.601,-38.453 -14.601,-38.453 0,0 -34.795,29.914 -40.262,54.726 -5.227,23.731 7.922,36.923 7.922,36.923 0,0 -6.127,-2.365 -9.937,-6.603 -4.853,-5.397 -6.597,-11.936 -6.597,-11.936 0,0 -2.028,4.907 0.631,21.695 1.89,11.932 8.09,20.862 15.365,27.434 17.682,15.972 45.257,14.426 61.283,-3.207 6.867,-7.554 12.177,-17.534 12.177,-30.332 z"
         fill="#ffa91a"
         id="path928"
         style="stroke-width:15.4105" />
    </g>
    <g
       id="g934"
       style="stroke-width:15.4072">
      <path
         d="m 104.443,182.763 c -0.53,0 -1.059,-0.209 -1.452,-0.624 -0.815,-0.86 -7.967,-8.814 -7.967,-23.119 0,-3.274 0.383,-6.672 1.137,-10.099 1.105,-5.016 3.612,-10.675 7.45,-16.82 0.585,-0.937 1.818,-1.223 2.756,-0.637 0.937,0.585 1.222,1.819 0.637,2.756 -3.596,5.757 -5.929,10.992 -6.936,15.561 -0.692,3.145 -1.043,6.253 -1.043,9.239 0,12.974 6.589,20.071 6.87,20.367 0.76,0.801 0.727,2.067 -0.075,2.827 -0.388,0.367 -0.883,0.549 -1.377,0.549 z m 5.367,-54.213 c -0.411,0 -0.826,-0.126 -1.183,-0.388 -0.89,-0.654 -1.082,-1.906 -0.428,-2.796 l 0.587,-0.793 c 0.661,-0.885 1.913,-1.066 2.799,-0.407 0.885,0.661 1.067,1.914 0.407,2.799 l -0.57,0.769 c -0.391,0.534 -0.998,0.816 -1.612,0.816 z"
         fill="#ffc91d"
         id="path932"
         style="stroke-width:15.4105" />
    </g>
    <g
       id="g938"
       style="stroke-width:15.4072">
      <path
         d="m 147.117,131.786 c -17.753,-17.987 -14.601,-38.453 -14.601,-38.453 0,0 -11.054,9.505 -21.681,22.242 9.784,10.12 22.262,24.91 22.262,46.458 0,12.798 -5.31,22.778 -12.177,30.333 -7.834,8.62 -18.429,13.384 -29.278,14.148 2.358,3.421 5.087,6.432 7.995,9.059 17.682,15.972 45.257,14.426 61.283,-3.207 6.867,-7.555 12.177,-17.535 12.177,-30.333 0.001,-24.406 -16.011,-40.147 -25.98,-50.247 z"
         fill="#f79219"
         id="path936"
         style="stroke-width:15.4105" />
    </g>
    <g
       id="g942"
       style="stroke-width:15.4072">
      <path
         d="m 147.117,131.786 c -17.753,-17.987 -14.601,-38.453 -14.601,-38.453 0,0 -6.977,6.005 -15.171,14.854 2.201,4.449 5.333,9.101 9.772,13.599 9.969,10.1 25.981,25.841 25.981,50.247 0,12.798 -5.31,22.778 -12.177,30.333 -10.679,11.75 -26.484,16.345 -41.074,13.386 17.69,15.775 45.11,14.179 61.074,-3.386 6.867,-7.555 12.177,-17.535 12.177,-30.333 0,-24.406 -16.012,-40.147 -25.981,-50.247 z"
         fill="#ef7816"
         id="path940"
         style="stroke-width:15.4105" />
    </g>
    <g
       id="g946"
       style="stroke-width:15.4072">
      <path
         d="m 164.737,8.44 c 0,0 -12.008,7.572 -11.78,21.626 0.12,7.423 3.912,13.391 6.683,20.003 2.475,5.906 2.967,14.89 2.967,14.89 0,0 8.227,-7.061 9.106,-22.723 0.345,-6.146 -2.909,-13.583 -4.606,-18.908 -2.627,-8.245 -2.37,-14.888 -2.37,-14.888 z"
         fill="#d10028"
         id="path944"
         style="stroke-width:15.4105" />
    </g>
    <g
       id="g950"
       style="stroke-width:15.4072">
      <path
         d="m 77.564,76.47 c 0,0 -10.164,-9.955 -6.971,-23.675 1.686,-7.247 9.211,-11.987 14.146,-17.208 5.03,-5.321 7.346,-14.936 7.346,-14.936 0,0 5.378,6.569 1.992,19.291 -2.176,8.177 -8.968,14.101 -11.756,18.96 -4.317,7.52 -4.757,17.568 -4.757,17.568 z"
         fill="#d10028"
         id="path948"
         style="stroke-width:15.4105" />
    </g>
  </g>
</svg>
