<?xml version="1.0" encoding="UTF-8" standalone="no"?>
<svg
   xmlns:dc="http://purl.org/dc/elements/1.1/"
   xmlns:cc="http://creativecommons.org/ns#"
   xmlns:rdf="http://www.w3.org/1999/02/22-rdf-syntax-ns#"
   xmlns:svg="http://www.w3.org/2000/svg"
   xmlns="http://www.w3.org/2000/svg"
   xmlns:sodipodi="http://sodipodi.sourceforge.net/DTD/sodipodi-0.dtd"
   xmlns:inkscape="http://www.inkscape.org/namespaces/inkscape"
   id="Filled-Outline"
   height="64"
   viewBox="0 0 370.10208 64"
   width="370.10208"
   version="1.1"
   sodipodi:docname="logo.svg"
   inkscape:version="1.0.2 (1.0.2+r75+1)">
  <metadata
     id="metadata42">
    <rdf:RDF>
      <cc:Work
         rdf:about="">
        <dc:format>image/svg+xml</dc:format>
        <dc:type
           rdf:resource="http://purl.org/dc/dcmitype/StillImage" />
        <dc:title />
      </cc:Work>
    </rdf:RDF>
  </metadata>
  <defs
     id="defs40" />
  <sodipodi:namedview
     pagecolor="#ffffff"
     bordercolor="#666666"
     borderopacity="1"
     objecttolerance="10"
     gridtolerance="10"
     guidetolerance="10"
     inkscape:pageopacity="0"
     inkscape:pageshadow="2"
     inkscape:window-width="1920"
     inkscape:window-height="1018"
     id="namedview38"
     showgrid="false"
     inkscape:zoom="0.87597656"
     inkscape:cx="186.01492"
     inkscape:cy="231.76637"
     inkscape:window-x="0"
     inkscape:window-y="34"
     inkscape:window-maximized="1"
     inkscape:current-layer="Filled-Outline"
     inkscape:document-rotation="0" />
  <g
     id="g878"
     transform="scale(0.5)"
     style="stroke-width:2">
    <text
       xml:space="preserve"
       style="font-size:93.5565px;line-height:1.25;font-family:Monofur;-inkscape-font-specification:Monofur;letter-spacing:0px;word-spacing:0px;stroke-width:2"
       x="112.77866"
       y="106.88007"
       id="text904"><tspan
         sodipodi:role="line"
         id="tspan902"
         x="112.77866"
         y="106.88007"
         style="font-style:italic;font-variant:normal;font-weight:normal;font-stretch:normal;font-family:Monoid;-inkscape-font-specification:Monoid;stroke-width:2">EXHAUSTION</tspan></text>
    <g
       id="g952"
       transform="matrix(0.53529609,0,0,0.53529609,-20.545199,-4.517899)"
       style="stroke-width:7.4725">
      <g
         id="g920"
         style="stroke-width:7.4725">
        <path
           d="m 128.27,247.56 c 38.843,0 73.751,-24.809 85.389,-61.867 2.462,-7.839 3.961,-16.16 3.961,-24.8 0,-48.333 -39.571,-87.333 -39.571,-87.333 0,0 2.726,15.788 1.03,29.227 -1.696,13.439 -7.946,21.689 -7.946,21.689 0,0 4.564,-21.102 -1.5,-35.25 -6.98,-16.284 -19.999,-23.838 -25,-38.5 -5.756,-16.875 2.869,-36.5 2.869,-36.5 0,0 -28.369,10.962 -48.869,39.25 -23.25,32.083 -7.583,73.417 -7.583,73.417 0,0 -2.167,-11.417 -13.917,-20.667 -11.75,-9.25 -6.99,-23.596 -6.99,-23.596 0,0 -31.762,35.597 -31.762,78.264 0,11.583 3.317,23.265 8.149,34.138 14.288,32.147 46.56,52.528 81.74,52.528 z"
           fill="#d10028"
           id="path918"
           style="stroke-width:7.47408" />
      </g>
      <g
         id="g926"
         style="stroke-width:7.4725">
        <g
           id="g924"
           style="stroke-width:7.4725">
          <path
             d="m 178.048,73.56 c 0,0 1.48,8.581 1.579,18.474 9.26,15.51 17.993,36.155 17.993,58.859 0,8.64 -1.499,16.961 -3.961,24.8 -11.638,37.058 -46.546,61.867 -85.389,61.867 -10.441,0 -20.62,-1.808 -30.155,-5.174 14.553,9.711 31.961,15.174 50.155,15.174 38.843,0 73.751,-24.809 85.389,-61.867 2.462,-7.839 3.961,-16.16 3.961,-24.8 C 217.619,112.56 178.048,73.56 178.048,73.56 Z"
             fill="#b7022d"
             id="path922"
             style="stroke-width:7.47408" />
        </g>
      </g>
      <g
         id="g930"
         style="stroke-width:7.4725">
        <path
           d="m 173.098,182.033 c 0,-24.406 -16.011,-40.148 -25.981,-50.247 -17.753,-17.987 -14.601,-38.453 -14.601,-38.453 0,0 -34.795,29.914 -40.262,54.726 -5.227,23.731 7.922,36.923 7.922,36.923 0,0 -6.127,-2.365 -9.937,-6.603 -4.853,-5.397 -6.597,-11.936 -6.597,-11.936 0,0 -2.028,4.907 0.631,21.695 1.89,11.932 8.09,20.862 15.365,27.434 17.682,15.972 45.257,14.426 61.283,-3.207 6.867,-7.554 12.177,-17.534 12.177,-30.332 z"
           fill="#ffa91a"
           id="path928"
           style="stroke-width:7.47408" />
      </g>
      <g
         id="g934"
         style="stroke-width:7.4725">
        <path
           d="m 104.443,182.763 c -0.53,0 -1.059,-0.209 -1.452,-0.624 -0.815,-0.86 -7.967,-8.814 -7.967,-23.119 0,-3.274 0.383,-6.672 1.137,-10.099 1.105,-5.016 3.612,-10.675 7.45,-16.82 0.585,-0.937 1.818,-1.223 2.756,-0.637 0.937,0.585 1.222,1.819 0.637,2.756 -3.596,5.757 -5.929,10.992 -6.936,15.561 -0.692,3.145 -1.043,6.253 -1.043,9.239 0,12.974 6.589,20.071 6.87,20.367 0.76,0.801 0.727,2.067 -0.075,2.827 -0.388,0.367 -0.883,0.549 -1.377,0.549 z m 5.367,-54.213 c -0.411,0 -0.826,-0.126 -1.183,-0.388 -0.89,-0.654 -1.082,-1.906 -0.428,-2.796 l 0.587,-0.793 c 0.661,-0.885 1.913,-1.066 2.799,-0.407 0.885,0.661 1.067,1.914 0.407,2.799 l -0.57,0.769 c -0.391,0.534 -0.998,0.816 -1.612,0.816 z"
           fill="#ffc91d"
           id="path932"
           style="stroke-width:7.47408" />
      </g>
      <g
         id="g938"
         style="stroke-width:7.4725">
        <path
           d="m 147.117,131.786 c -17.753,-17.987 -14.601,-38.453 -14.601,-38.453 0,0 -11.054,9.505 -21.681,22.242 9.784,10.12 22.262,24.91 22.262,46.458 0,12.798 -5.31,22.778 -12.177,30.333 -7.834,8.62 -18.429,13.384 -29.278,14.148 2.358,3.421 5.087,6.432 7.995,9.059 17.682,15.972 45.257,14.426 61.283,-3.207 6.867,-7.555 12.177,-17.535 12.177,-30.333 0.001,-24.406 -16.011,-40.147 -25.98,-50.247 z"
           fill="#f79219"
           id="path936"
           style="stroke-width:7.47408" />
      </g>
      <g
         id="g942"
         style="stroke-width:7.4725">
        <path
           d="m 147.117,131.786 c -17.753,-17.987 -14.601,-38.453 -14.601,-38.453 0,0 -6.977,6.005 -15.171,14.854 2.201,4.449 5.333,9.101 9.772,13.599 9.969,10.1 25.981,25.841 25.981,50.247 0,12.798 -5.31,22.778 -12.177,30.333 -10.679,11.75 -26.484,16.345 -41.074,13.386 17.69,15.775 45.11,14.179 61.074,-3.386 6.867,-7.555 12.177,-17.535 12.177,-30.333 0,-24.406 -16.012,-40.147 -25.981,-50.247 z"
           fill="#ef7816"
           id="path940"
           style="stroke-width:7.47408" />
      </g>
      <g
         id="g946"
         style="stroke-width:7.4725">
        <path
           d="m 164.737,8.44 c 0,0 -12.008,7.572 -11.78,21.626 0.12,7.423 3.912,13.391 6.683,20.003 2.475,5.906 2.967,14.89 2.967,14.89 0,0 8.227,-7.061 9.106,-22.723 0.345,-6.146 -2.909,-13.583 -4.606,-18.908 -2.627,-8.245 -2.37,-14.888 -2.37,-14.888 z"
           fill="#d10028"
           id="path944"
           style="stroke-width:7.47408" />
      </g>
      <g
         id="g950"
         style="stroke-width:7.4725">
        <path
           d="m 77.564,76.47 c 0,0 -10.164,-9.955 -6.971,-23.675 1.686,-7.247 9.211,-11.987 14.146,-17.208 5.03,-5.321 7.346,-14.936 7.346,-14.936 0,0 5.378,6.569 1.992,19.291 -2.176,8.177 -8.968,14.101 -11.756,18.96 -4.317,7.52 -4.757,17.568 -4.757,17.568 z"
           fill="#d10028"
           id="path948"
           style="stroke-width:7.47408" />
      </g>
    </g>
  </g>
</svg>
